<svg width="12.632812" height="12.632812" viewBox="0 0 12.6328 12.6328" fill="none" xmlns="http://www.w3.org/2000/svg" xmlns:xlink="http://www.w3.org/1999/xlink">
	<desc>
			Created with Pixso.
	</desc>
	<defs/>
	<path id="Vector" d="M5.06 0C7.86 0 10.12 2.26 10.12 5.06C10.12 6.27 9.7 7.38 8.99 8.25L12.47 11.73C12.68 11.93 12.68 12.27 12.47 12.47C12.27 12.68 11.93 12.68 11.73 12.47L8.25 8.99C7.38 9.7 6.27 10.12 5.06 10.12C2.26 10.12 0 7.86 0 5.06C0 2.26 2.26 0 5.06 0ZM5.06 9.07C7.27 9.07 9.07 7.27 9.07 5.06C9.07 2.84 7.27 1.05 5.06 1.05C2.84 1.05 1.05 2.84 1.05 5.06C1.05 7.27 2.84 9.07 5.06 9.07Z" fill="#FBD846" fill-opacity="1.000000" fill-rule="nonzero"/>
</svg>
