<svg width="27.035156" height="27.043945" viewBox="0 0 27.0352 27.0439" fill="none" xmlns="http://www.w3.org/2000/svg" xmlns:xlink="http://www.w3.org/1999/xlink">
	<desc>
			Created with Pixso.
	</desc>
	<defs/>
	<path id="Vector" d="M12.19 23.16L15.74 19.62L21.62 23.71L20.3 25.02C19.42 25.9 18.13 26.22 16.94 25.87C13.31 24.78 10.04 22.8 7.14 19.91C4.25 17.02 2.25 13.76 1.17 10.13C0.81 8.95 1.14 7.66 2.01 6.79L3.33 5.47L7.43 11.33L3.88 14.88M11.89 9.83C14.77 9.51 17.24 11.87 17.04 14.75L16.99 15.42M11.89 5.81C17.1 5.23 21.55 9.49 21.19 14.7L21.1 15.91M11.89 1.09C19.79 0.21 26.55 6.68 26 14.58L25.87 16.41" stroke="#99CB38" stroke-opacity="1.000000" stroke-width="2.000000"/>
</svg>
